<svg xmlns="http://www.w3.org/2000/svg" xmlns:xlink="http://www.w3.org/1999/xlink" viewBox="0 0 563.96 646.98"><defs><linearGradient id="a" x1="229.96" y1="383.54" x2="793.92" y2="383.54" gradientUnits="userSpaceOnUse"><stop offset="0.5" stop-color="#26658a"/><stop offset="0.5" stop-color="#2d729c"/></linearGradient></defs><title>safecoin_logo_only</title><path d="M230.07,383.11c0-51.83.06-103.67-.11-155.51,0-4.56,1.3-7.11,5.35-9.43q87.4-50.08,174.62-100.5,48.63-28,97.23-56.09c3.46-2,6.11-2.07,9.61,0Q605.83,113.08,695,164.41q47,27.08,94,54c3.46,2,4.89,4.2,4.88,8.29q-.17,156.71,0,313.42c0,4.34-1.61,6.52-5.2,8.58q-64.5,37-128.84,74.19Q588,664.31,516.05,705.72c-3,1.75-5.29,1.75-8.31,0q-83-48.06-166.15-95.92-53.19-30.66-106.5-61.11c-4-2.26-5.11-4.81-5.1-9.1Q230.17,461.35,230.07,383.11Zm158.46,12.11c0,19.2-.1,38.4.14,57.59,0,2.1,1.39,5.12,3.08,6.12,38.61,22.68,77.39,45.07,116,67.72,3.74,2.19,6.4,2,10-.14,33-19.33,66.05-38.44,99-57.74,3-1.76,5.31-1.78,8.32,0,12.68,7.48,25.5,14.7,38.26,22,5.47,3.14,5.47,3.18.11,6.33Q590,540.2,516.6,583.38c-3.85,2.28-6.67,2.27-10.44.09-25.17-14.59-50.45-29-75.7-43.44q-45.79-26.22-91.64-52.35c-1.69-1-4.61-1.64-6.08-.84-10.81,5.91-21.38,12.23-32,18.4-2.29,1.32-2.11,2.44.09,3.67,4,2.26,8,4.6,12.07,6.91q96.36,55.27,192.67,110.63c4.67,2.69,8.26,2.57,12.75-.16,15.86-9.61,31.92-18.9,47.92-28.28L738.71,496.75c5.06-3,5-3.35,0-6.26q-48.87-28.08-97.78-56.09c-3.37-1.92-4.59-4.08-4.58-7.93.14-35.68,0-71.36.17-107,0-4-1.24-6.35-4.74-8.37Q575.26,278.43,519,245.43c-4.63-2.72-8.12-2.71-12.71,0-30.3,17.87-60.81,35.4-91.12,53.27-4.26,2.51-7.36,2.53-11.66-.07-14.23-8.59-28.74-16.72-43.24-24.86-3.81-2.14-4.74-3.31-.2-6Q434.19,224.49,508.23,181c1.62-.94,4.62-.77,6.41.07,4.91,2.32,9.51,5.27,14.23,8q76.8,44,153.58,88.14c3.92,2.26,7,2.44,11,0,8.55-5.31,17.42-10.1,26.1-15.21a40.87,40.87,0,0,0,4.65-3.71,45.5,45.5,0,0,0-4.52-3.35Q681,232.68,642.29,210.52q-63-36.18-126-72.39c-3.18-1.84-6-2.16-9.36-.16Q396.07,203.21,285.1,268.22c-4.69,2.75-3.33,3.82.36,5.92C318.54,293,351.53,312,384.61,330.82c2.86,1.63,4,3.47,4,6.81C388.45,356.82,388.52,376,388.53,395.22Z" transform="translate(-229.96 -60.05)" fill="url(#a)"/><path d="M511,453.2c-7.68,0-15.36-.16-23,.06-3.56.11-4.43-1.06-3.7-4.43,3-13.71,5.87-27.45,8.75-41.18,1.41-6.72,2.87-13.42,4-20.19a5.24,5.24,0,0,0-2.09-4.22c-18.89-11.12-23.57-34.06-10.38-51.59,14.35-19,45.93-15.86,56.9,5.29,9.11,17.57,1.7,37.35-13.87,46.44-1.32.77-2.43,3.61-2.11,5.19q6.09,30,12.74,59.93c.81,3.65.24,4.83-3.65,4.72-7.83-.24-15.67-.08-23.51-.08Z" transform="translate(-229.96 -60.05)" fill="#525252"/></svg>